<?xml version="1.0" encoding="UTF-8" standalone="no"?>
<svg
xmlns:dc="http://purl.org/dc/elements/1.1/"
xmlns:cc="http://creativecommons.org/ns#"
xmlns:rdf="http://www.w3.org/1999/02/22-rdf-syntax-ns#"
xmlns:svg="http://www.w3.org/2000/svg"
xmlns="http://www.w3.org/2000/svg"
id="svg8"
version="1.1"
viewBox="0 0 95.110298 18.265423"
height="18.265423mm"
width="95.110298mm">
<defs
id="defs2" />
<metadata
id="metadata5">
<rdf:RDF>
<cc:Work
rdf:about="">
<dc:format>image/svg+xml</dc:format>
<dc:type
rdf:resource="http://purl.org/dc/dcmitype/StillImage" />
<dc:title></dc:title>
</cc:Work>
</rdf:RDF>
</metadata>
<g
transform="translate(-117.06054,-70.650323)"
id="layer1">
<g
id="text12"
style="fill:#fff;fill-opacity:1;stroke:none;stroke-width:0.26458332"
aria-label="Hi there!">
<path
id="path17"
style="stroke-width:0.26458332"
d="m 130.78782,72.885523 v 15.8496 h -3.8608 v -6.524978 h -6.00568 v 6.524978 h -3.8608 v -15.8496 h 3.8608 v 6.208889 h 6.00568 v -6.208889 z" />
<path
id="path19"
style="stroke-width:0.26458332"
d="m 135.49459,74.827212 q -1.016,0 -1.67076,-0.587023 -0.63218,-0.6096 -0.63218,-1.490133 0,-0.903111 0.63218,-1.490133 0.65476,-0.6096 1.67076,-0.6096 0.99342,0 1.6256,0.6096 0.65475,0.587022 0.65475,1.490133 0,0.880533 -0.65475,1.490133 -0.63218,0.587023 -1.6256,0.587023 z m 1.91911,1.309511 v 12.5984 h -3.8608 v -12.5984 z" />
<path
id="path21"
style="stroke-width:0.26458332"
d="m 152.03986,85.461345 v 3.273778 h -1.96426 q -2.09974,0 -3.27378,-1.016 -1.17405,-1.038578 -1.17405,-3.364089 v -5.012267 h -1.53529 v -3.206044 h 1.53529 v -3.070578 h 3.8608 v 3.070578 h 2.52871 v 3.206044 h -2.52871 v 5.057422 q 0,0.564445 0.27094,0.8128 0.27093,0.248356 0.90311,0.248356 z" />
<path
id="path23"
style="stroke-width:0.26458332"
d="m 161.93457,76.001256 q 2.16747,0 3.47698,1.444978 1.30951,1.4224 1.30951,3.928533 v 7.360356 h -3.83822 v -6.841067 q 0,-1.264356 -0.65476,-1.964267 -0.65475,-0.699911 -1.76106,-0.699911 -1.10631,0 -1.76107,0.699911 -0.65475,0.699911 -0.65475,1.964267 v 6.841067 h -3.8608 V 72.027567 h 3.8608 v 5.802489 q 0.58702,-0.835378 1.60302,-1.332089 1.016,-0.496711 2.28035,-0.496711 z" />
<path
id="path25"
style="stroke-width:0.26458332"
d="m 181.27985,82.232723 q 0,0.541866 -0.0677,1.128889 h -8.7376 q 0.0903,1.174044 0.74506,1.806222 0.67734,0.6096 1.64818,0.6096 1.44498,0 2.00942,-1.2192 h 4.10916 q -0.31609,1.241778 -1.15147,2.2352 -0.8128,0.993422 -2.05458,1.557866 -1.24177,0.564445 -2.77706,0.564445 -1.85138,0 -3.29636,-0.790222 -1.44498,-0.790223 -2.25778,-2.257778 -0.8128,-1.467556 -0.8128,-3.431822 0,-1.964267 0.79023,-3.431823 0.8128,-1.467555 2.25777,-2.257777 1.44498,-0.790223 3.31894,-0.790223 1.8288,0 3.2512,0.767645 1.4224,0.767644 2.21262,2.190044 0.8128,1.4224 0.8128,3.318934 z m -3.95111,-1.016 q 0,-0.993423 -0.67734,-1.580445 -0.67733,-0.587022 -1.69333,-0.587022 -0.97084,0 -1.64818,0.564444 -0.65475,0.564445 -0.8128,1.603023 z" />
<path
id="path27"
style="stroke-width:0.26458332"
d="m 187.15536,78.236456 q 0.67733,-1.038578 1.69333,-1.6256 1.016,-0.6096 2.25778,-0.6096 v 4.086578 h -1.06115 q -1.44498,0 -2.16747,0.632178 -0.72249,0.6096 -0.72249,2.167466 v 5.847645 h -3.8608 v -12.5984 h 3.8608 z" />
<path
id="path29"
style="stroke-width:0.26458332"
d="m 204.82777,82.232723 q 0,0.541866 -0.0677,1.128889 h -8.7376 q 0.0903,1.174044 0.74507,1.806222 0.67733,0.6096 1.64818,0.6096 1.44497,0 2.00942,-1.2192 h 4.10915 q -0.31608,1.241778 -1.15146,2.2352 -0.8128,0.993422 -2.05458,1.557866 -1.24178,0.564445 -2.77707,0.564445 -1.85137,0 -3.29635,-0.790222 -1.44498,-0.790223 -2.25778,-2.257778 -0.8128,-1.467556 -0.8128,-3.431822 0,-1.964267 0.79022,-3.431823 0.8128,-1.467555 2.25778,-2.257777 1.44498,-0.790223 3.31893,-0.790223 1.8288,0 3.2512,0.767645 1.4224,0.767644 2.21263,2.190044 0.8128,1.4224 0.8128,3.318934 z m -3.95112,-1.016 q 0,-0.993423 -0.67733,-1.580445 -0.67733,-0.587022 -1.69333,-0.587022 -0.97085,0 -1.64818,0.564444 -0.65476,0.564445 -0.8128,1.603023 z" />
<path
id="path31"
style="stroke-width:0.26458332"
d="m 211.92248,72.321078 -0.45156,10.814756 h -3.27377 l -0.45156,-10.814756 z m -2.032,16.594667 q -1.016,0 -1.67076,-0.587022 -0.63217,-0.6096 -0.63217,-1.490134 0,-0.903111 0.63217,-1.512711 0.65476,-0.6096 1.67076,-0.6096 0.99342,0 1.6256,0.6096 0.65476,0.6096 0.65476,1.512711 0,0.880534 -0.65476,1.490134 -0.63218,0.587022 -1.6256,0.587022 z" />
</g>
</g>
</svg>
